<svg version="1.1" xmlns="http://www.w3.org/2000/svg" width="32" height="32" viewBox="0 0 32 32">
<path fill="#f12d11" opacity="0.993" d="M26.156 4.656c-1.986 0.045-4.326 0.070-6.672 0.070-0.775 0-1.549-0.003-2.322-0.008l0.119 0.001c1.53-1.757 3.447-2.413 5.75-1.969 1.252 0.302 2.293 0.938 3.125 1.906z"></path>
<path fill="#f13611" opacity="0.989" d="M26.156 4.656c0.649 0.756 1.065 1.631 1.25 2.625h-2.813c-0.754-1.492-1.962-2.086-3.625-1.781-0.977 0.3-1.664 0.915-2.063 1.844-0.631-0.045-1.367-0.070-2.11-0.070-0.247 0-0.494 0.003-0.739 0.008l0.037-0.001c0.169-0.968 0.565-1.822 1.188-2.563 2.963 0.021 5.921-0 8.875-0.063z"></path>
<path fill="#f13611" opacity="0.97" d="M13.219 6.156c-2.014-0.045-4.387-0.070-6.766-0.070-0.786 0-1.571 0.003-2.355 0.008l0.121-0.001c0.524-0.428 1.128-0.689 1.813-0.781 2.104-0.042 4.208-0.042 6.313 0 0.447 0.124 0.739 0.405 0.875 0.844z"></path>
<path fill="#f23b11" opacity="0.995" d="M4.219 6.094c3.005-0.021 6.005 0 9 0.063 0.176 0.384 0.155 0.759-0.063 1.125h-10c0.244-0.494 0.598-0.89 1.063-1.188z"></path>
<path fill="#f24112" opacity="0.99" d="M3.156 7.281h10c-0.161 0.317-0.411 0.535-0.75 0.656l-5.813 0.063c-0.392 0.040-0.725 0.196-1 0.469h-2.875c0.061-0.432 0.207-0.828 0.438-1.188z"></path>
<path fill="#f24112" opacity="0.989" d="M16.094 7.281c0.209-0.005 0.456-0.008 0.703-0.008 0.742 0 1.479 0.026 2.208 0.076l-0.099-0.005c-0.106 0.315-0.174 0.678-0.187 1.056l-0 0.007-2.75 0.125c-0.018-0.432 0.023-0.848 0.125-1.25z"></path>
<path fill="#f24112" opacity="0.994" d="M24.594 7.281h2.813c0.080 0.385 0.126 0.827 0.126 1.279 0 0.034-0 0.067-0.001 0.101l0-0.005c-0.056-0.044-0.077-0.107-0.063-0.188h-2.625c-0.020-0.432-0.11-0.837-0.259-1.213l0.009 0.026z"></path>
<path fill="#f24713" opacity="0.99" d="M18.719 8.406c-0.004 0.436 0.079 0.853 0.25 1.25-0.209 0.005-0.455 0.007-0.702 0.007-0.764 0-1.523-0.025-2.275-0.075l0.102 0.005c-0.073-0.316-0.118-0.682-0.125-1.057l-0-0.005 2.75-0.125z"></path>
<path fill="#f24712" opacity="0.99" d="M2.719 8.469h2.875c-0.219 0.427-0.303 0.886-0.25 1.375-0.056-0.044-0.077-0.107-0.063-0.188h-2.625c0.015-0.081-0.006-0.143-0.063-0.188-0.015-0.349 0.026-0.682 0.125-1z"></path>
<path fill="#f24712" opacity="0.991" d="M24.844 8.469h2.625c-0.015 0.081 0.006 0.143 0.063 0.188-0.032 0.347-0.095 0.68-0.188 1h-2.75c0.136-0.35 0.226-0.755 0.25-1.177l0-0.011z"></path>
<path fill="#f24e13" opacity="0.987" d="M16.094 9.594c0.65 0.044 1.408 0.070 2.173 0.070 0.247 0 0.493-0.003 0.739-0.008l-0.037 0.001c0.237 0.509 0.571 0.946 1 1.313-0.756 0.045-1.641 0.070-2.531 0.070-0.297 0-0.593-0.003-0.888-0.008l0.044 0.001c-0.227-0.415-0.4-0.897-0.495-1.407l-0.005-0.030z"></path>
<path fill="#f24e13" opacity="0.996" d="M2.594 9.469c0.057 0.044 0.077 0.107 0.063 0.188h2.625c-0.015 0.081 0.006 0.143 0.063 0.188v1.188h-2.688c0.015 0.081-0.006 0.143-0.063 0.188v-1.75z"></path>
<path fill="#f24e13" opacity="0.988" d="M24.594 9.656h2.75c-0.064 0.501-0.23 0.959-0.5 1.375h-3.375c0.489-0.364 0.864-0.823 1.125-1.375z"></path>
<path fill="#f25413" opacity="0.988" d="M19.969 10.969c1.155 0.72 2.322 0.741 3.5 0.063h3.375c-0.071 0.14-0.102 0.286-0.094 0.438 0.228 0.218 0.442 0.442 0.646 0.675l0.010 0.012-9.938 0.125c-0.352-0.371-0.644-0.787-0.875-1.25 0.251 0.005 0.547 0.008 0.844 0.008 0.89 0 1.775-0.026 2.653-0.076l-0.121 0.006z"></path>
<path fill="#f25414" opacity="0.97" d="M5.344 11.031v1.188h-2.688c0.015 0.081-0.006 0.143-0.063 0.188v-1.188c0.057-0.044 0.077-0.107 0.063-0.188h2.688z"></path>
<path fill="#f25a13" opacity="0.994" d="M27.406 12.156c0.438 0.396 0.854 0.813 1.25 1.25-0.283-0.005-0.618-0.008-0.953-0.008-1.006 0-2.006 0.026-2.999 0.076l0.139-0.006c-0.075-0.102-0.159-0.123-0.25-0.063h-5.688c-0.551-0.28-1.030-0.655-1.438-1.125l9.938-0.125z"></path>
<path fill="#f25a14" opacity="0.97" d="M5.344 12.219v1.188h-2.688c0.015 0.081-0.006 0.143-0.063 0.188v-1.188c0.057-0.044 0.077-0.107 0.063-0.188h2.688z"></path>
<path fill="#f36014" opacity="0.97" d="M5.344 13.406v1.188h-2.688c0.015 0.081-0.006 0.143-0.063 0.188v-1.188c0.057-0.044 0.077-0.107 0.063-0.188h2.688z"></path>
<path fill="#f35f13" opacity="0.967" d="M18.906 13.406h5.688c-1.422 0.77-2.922 0.947-4.5 0.531-0.426-0.124-0.822-0.301-1.188-0.531z"></path>
<path fill="#f36014" opacity="0.991" d="M28.656 13.406c0.444 0.298 0.673 0.715 0.688 1.25-0.496-0.040-1.073-0.062-1.656-0.062s-1.16 0.023-1.732 0.067l0.076-0.005c-0.417-0.375-0.813-0.771-1.188-1.188 0.854-0.045 1.854-0.070 2.86-0.070 0.335 0 0.669 0.003 1.003 0.008l-0.050-0.001z"></path>
<path fill="#f36614" opacity="0.991" d="M13.719 15.969h-7.625c0.574-0.666 1.209-1.252 1.906-1.759l0.032-0.022c1.549-0.735 3.007-0.589 4.375 0.438 0.445 0.435 0.873 0.873 1.291 1.321l0.021 0.023z"></path>
<path fill="#f36714" opacity="0.974" d="M5.344 14.594v1.188c-0.056 0.044-0.077 0.107-0.063 0.188h-2.688v-1.188c0.057-0.044 0.077-0.107 0.063-0.188h2.688z"></path>
<path fill="#f26614" opacity="0.98" d="M29.344 14.656c-0.107 1.013-0.67 1.46-1.688 1.344-0.214-0.050-0.402-0.136-0.567-0.253l0.005 0.003c-0.363-0.352-0.709-0.709-1.045-1.075l-0.017-0.019c0.496-0.040 1.073-0.062 1.656-0.062s1.16 0.023 1.732 0.067l-0.076-0.005z"></path>
<path fill="#f36d14" opacity="0.986" d="M5.344 15.781c-0.010 0.292 0 0.584 0.031 0.875 0.228-0.238 0.462-0.463 0.706-0.677l0.013-0.011h7.625c0.417 0.375 0.813 0.771 1.188 1.188-0.283-0.005-0.618-0.008-0.953-0.008-1.006 0-2.006 0.026-2.999 0.076l0.139-0.006c-0.211-0.238-0.436-0.453-0.677-0.648l-0.011-0.008c-0.385-0.206-0.76-0.186-1.125 0.063-0.176 0.187-0.36 0.36-0.553 0.523l-0.010 0.008h-6.125v-1.188h2.688c-0.015-0.081 0.006-0.143 0.063-0.188z"></path>
<path fill="#f36e15" opacity="0.982" d="M21.969 17.156c-0.381 0.005-0.831 0.008-1.281 0.008-1.352 0-2.698-0.026-4.037-0.076l0.193 0.006c0.873-0.823 1.915-1.146 3.125-0.969 0.794 0.114 1.461 0.458 2 1.031z"></path>
<path fill="#f37315" opacity="0.993" d="M16.844 17.094c1.146 0.045 2.492 0.070 3.844 0.070 0.45 0 0.9-0.003 1.349-0.009l-0.068 0.001c0.417 0.375 0.813 0.771 1.188 1.188-0.807-0.005-1.762-0.008-2.718-0.008-2.868 0-5.73 0.026-8.586 0.076l0.429-0.006c-0.412-0.388-0.799-0.775-1.175-1.174l-0.013-0.014c0.854-0.045 1.854-0.070 2.86-0.070 0.335 0 0.669 0.003 1.003 0.008l-0.050-0.001c0.311 0.29 0.624 0.582 0.938 0.875 0.335-0.314 0.668-0.626 1-0.938z"></path>
<path fill="#f27315" opacity="0.986" d="M2.594 17.156h6.125c-0.396 0.438-0.813 0.854-1.25 1.25-1.091-0.045-2.37-0.070-3.656-0.070-0.429 0-0.856 0.003-1.284 0.009l0.065-0.001v-1.188z"></path>
<path fill="#f37915" opacity="0.983" d="M2.594 18.344c1.636-0.021 3.261 0 4.875 0.063-0.375 0.417-0.771 0.813-1.188 1.188-0.826-0.045-1.793-0.070-2.766-0.070-0.324 0-0.647 0.003-0.97 0.008l0.048-0.001v-1.188z"></path>
<path fill="#f37815" opacity="0.992" d="M26.656 19.344c-0.056 0.044-0.077 0.107-0.063 0.188h-6c-0.211-0.201-0.435-0.395-0.667-0.578l-0.020-0.015c-0.354-0.208-0.708-0.208-1.063 0-0.204 0.236-0.433 0.434-0.688 0.594h-4.688c-0.443-0.339-0.832-0.708-1.179-1.114l-0.009-0.011c2.427-0.045 5.289-0.070 8.157-0.070 0.956 0 1.911 0.003 2.865 0.009l-0.147-0.001c0.278 0.246 0.532 0.491 0.777 0.746l0.004 0.004c-0.105-1.264 0.468-1.857 1.719-1.781 0.418 0.126 0.72 0.386 0.906 0.781 0.064 0.294 0.101 0.632 0.101 0.979 0 0.095-0.003 0.19-0.008 0.284l0.001-0.013z"></path>
<path fill="#f48015" opacity="0.993" d="M26.656 19.344v1.563c-1.607 0.020-3.211-0.001-4.813-0.063-2.084-2.199-2.492-2.627-2.9-3.054l1.65 1.742h6c-0.015-0.081 0.006-0.143 0.063-0.188z"></path>
<path fill="#f37f15" opacity="0.998" d="M2.594 19.531c0.274-0.005 0.598-0.008 0.922-0.008 0.973 0 1.94 0.026 2.9 0.076l-0.134-0.006c-0.3 0.331-0.596 0.637-0.901 0.932l-0.005 0.005c-0.022 0.085-0.035 0.182-0.035 0.282 0 0.033 0.001 0.065 0.004 0.097l-0-0.004h-2.688c0.015-0.081-0.006-0.143-0.063-0.188v-1.188z"></path>
<path fill="#f48016" opacity="0.987" d="M13.469 19.531h4.688c-0.33 0.391-0.453 0.533-0.576 0.675l0.201-0.238c0.293 0.314 0.585 0.626 0.875 0.938-0.279-0.005-0.608-0.008-0.937-0.008-0.989 0-1.973 0.026-2.95 0.076l0.137-0.006c-0.505-0.464-0.974-0.933-1.422-1.421l-0.015-0.017z"></path>
<path fill="#f38616" d="M2.594 20.719c0.057 0.044 0.077 0.107 0.063 0.188h2.688v1.188h-2.688c0.015-0.081-0.006-0.143-0.063-0.188v-1.188z"></path>
<path fill="#f48616" opacity="0.985" d="M18.656 20.906c0.399 0.358 0.767 0.726 1.113 1.112l0.012 0.013c-0.84 0.045-1.823 0.070-2.813 0.070-0.329 0-0.658-0.003-0.986-0.008l0.049 0.001c-0.399-0.358-0.767-0.726-1.113-1.112l-0.012-0.013c0.84-0.045 1.823-0.070 2.813-0.070 0.329 0 0.658 0.003 0.986 0.008l-0.049-0.001z"></path>
<path fill="#f48616" opacity="0.991" d="M21.844 20.844c1.601 0.061 3.206 0.082 4.813 0.063v1.188c-0.26-0.005-0.567-0.008-0.875-0.008-0.923 0-1.841 0.026-2.752 0.076l0.127-0.006c-0.463-0.422-0.891-0.85-1.299-1.297l-0.014-0.015z"></path>
<path fill="#f48c17" opacity="0.988" d="M19.781 22.031c0.417 0.375 0.813 0.771 1.188 1.188-0.84 0.045-1.823 0.070-2.813 0.070-0.329 0-0.658-0.003-0.986-0.008l0.049 0.001c-0.421-0.379-0.808-0.767-1.175-1.173l-0.012-0.014c0.279 0.005 0.608 0.008 0.937 0.008 0.989 0 1.973-0.026 2.95-0.076l-0.137 0.006z"></path>
<path fill="#f38c17" d="M2.594 21.906c0.057 0.044 0.077 0.107 0.063 0.188h2.688v1.188h-2.688c0.015-0.081-0.006-0.143-0.063-0.188v-1.188z"></path>
<path fill="#f48c16" opacity="0.99" d="M26.656 22.094v1.188h-2.688c0.002-0.023 0.004-0.050 0.004-0.077 0-0.084-0.013-0.165-0.037-0.241l0.002 0.006c-0.269-0.259-0.524-0.524-0.769-0.798l-0.012-0.014c0.784-0.045 1.702-0.070 2.625-0.070 0.308 0 0.615 0.003 0.921 0.008l-0.046-0.001z"></path>
<path fill="#f39217" d="M2.594 23.094c0.057 0.044 0.077 0.107 0.063 0.188h2.688v1.188h-2.688c0.015-0.081-0.006-0.143-0.063-0.188v-1.188z"></path>
<path fill="#f49217" opacity="0.989" d="M20.969 23.219c0.417 0.375 0.813 0.771 1.188 1.188-0.84 0.045-1.823 0.070-2.813 0.070-0.329 0-0.658-0.003-0.986-0.008l0.049 0.001c-0.417-0.375-0.813-0.771-1.188-1.188 0.279 0.005 0.608 0.008 0.937 0.008 0.989 0 1.973-0.026 2.95-0.076l-0.137 0.006z"></path>
<path fill="#f49217" opacity="0.992" d="M23.969 23.281h2.688v1.188h-2.688v-1.188z"></path>
<path fill="#f49917" opacity="0.989" d="M22.156 24.406c0.479 0.438 0.938 0.896 1.375 1.375-0.579 0.040-1.256 0.062-1.938 0.062s-1.358-0.023-2.029-0.067l0.091 0.005c-1.328-1.4-1.735-1.827-2.143-2.255l0.893 0.942c0.279 0.005 0.608 0.008 0.937 0.008 0.989 0 1.973-0.026 2.95-0.076l-0.137 0.006z"></path>
<path fill="#f49918" opacity="0.997" d="M2.594 24.281c0.057 0.044 0.077 0.107 0.063 0.188h2.688c-0.032 0.47 0.010 0.928 0.125 1.375h-2.813c-0.043-0.363-0.068-0.783-0.068-1.209 0-0.124 0.002-0.248 0.006-0.371l-0 0.018z"></path>
<path fill="#f49918" opacity="0.992" d="M23.969 24.469h2.688v1.375h-2.875c0.158-0.441 0.22-0.899 0.188-1.375z"></path>
<path fill="#f5a017" opacity="0.963" d="M19.656 25.781c0.579 0.040 1.256 0.062 1.938 0.062s1.358-0.023 2.029-0.067l-0.091 0.005c0.061 0.040 0.124 0.082 0.188 0.125 0.038-0.008 0.059-0.029 0.063-0.063h2.875c-0.085 0.448-0.215 0.846-0.388 1.219l0.013-0.032h-23.25c-0.224-0.359-0.349-0.755-0.375-1.188h2.813c0.187 0.364 0.479 0.604 0.875 0.719 4.688 0.042 9.375 0.042 14.063 0-0.246-0.278-0.491-0.532-0.746-0.777l-0.004-0.004z"></path>
<path fill="#f5a417" opacity="0.998" d="M3.031 27.031h23.25c-0.095 0.231-0.22 0.44-0.375 0.625-7.5-0.042-14.979 0-22.438 0.125-0.209-0.208-0.354-0.458-0.438-0.75z"></path>
<path fill="#f5a718" opacity="0.998" d="M25.906 27.656c-0.145 0.249-0.334 0.458-0.557 0.621l-0.006 0.004c-4.792-0.045-10.454-0.070-16.122-0.070-1.891 0-3.78 0.003-5.67 0.009l0.292-0.001c-0.138-0.131-0.261-0.274-0.369-0.428l-0.006-0.009c5.006-0.090 10.911-0.141 16.828-0.141 1.972 0 3.943 0.006 5.913 0.017l-0.303-0.001z"></path>
<path fill="#f5ab18" opacity="0.995" d="M3.844 28.219c7.177-0.021 14.344 0 21.5 0.063-0.642 0.612-1.413 0.956-2.313 1.031-5.604 0.042-11.208 0.042-16.813 0-0.915-0.114-1.707-0.479-2.375-1.094z"></path>
</svg>
